<?xml version="1.0" standalone="no"?>
<!DOCTYPE svg PUBLIC "-//W3C//DTD SVG 1.1//EN" "http://www.w3.org/Graphics/SVG/1.1/DTD/svg11.dtd" >
<svg xmlns="http://www.w3.org/2000/svg">
<metadata>Generated by IcoMoon</metadata>
<defs>
<font id="icofly" horiz-adv-x="1024">
<font-face units-per-em="1024" ascent="960" descent="-64" />
<missing-glyph horiz-adv-x="1024" />
<glyph unicode="&#x20;" horiz-adv-x="512" d="" />
<glyph unicode="&#xe900;" d="M1011.2 448c0-275.701-223.499-499.2-499.2-499.2s-499.2 223.499-499.2 499.2c0 275.701 223.499 499.2 499.2 499.2s499.2-223.499 499.2-499.2z" />
<glyph unicode="&#xe901;" d="M512 960c-282.317 0-512-229.683-512-512s229.683-512 512-512c282.317 0 512 229.683 512 512s-229.683 512-512 512zM512-38.4c-268.198 0-486.4 218.202-486.4 486.4s218.202 486.4 486.4 486.4 486.4-218.202 486.4-486.4-218.202-486.4-486.4-486.4z" />
<glyph unicode="&#xe902;" d="M591.206 457.958l-138.611 139.635c-5.466 5.504-14.336 5.504-19.802 0-5.453-5.517-5.453-14.438 0-19.955l128.73-129.638-128.73-129.638c-5.453-5.504-5.453-14.426 0-19.955 5.466-5.504 14.336-5.504 19.802 0l138.598 139.622c5.466 5.504 5.466 14.451 0.013 19.93z" />
<glyph unicode="&#xe903;" glyph-name="instagram" d="M512 867.8c136.8 0 153-0.6 206.8-3 50-2.2 77-10.6 95-17.6 23.8-9.2 41-20.4 58.8-38.2 18-18 29-35 38.4-58.8 7-18 15.4-45.2 17.6-95 2.4-54 3-70.2 3-206.8s-0.6-153-3-206.8c-2.2-50-10.6-77-17.6-95-9.2-23.8-20.4-41-38.2-58.8-18-18-35-29-58.8-38.4-18-7-45.2-15.4-95-17.6-54-2.4-70.2-3-206.8-3s-153 0.6-206.8 3c-50 2.2-77 10.6-95 17.6-23.8 9.2-41 20.4-58.8 38.2-18 18-29 35-38.4 58.8-7 18-15.4 45.2-17.6 95-2.4 54-3 70.2-3 206.8s0.6 153 3 206.8c2.2 50 10.6 77 17.6 95 9.2 23.8 20.4 41 38.2 58.8 18 18 35 29 58.8 38.4 18 7 45.2 15.4 95 17.6 53.8 2.4 70 3 206.8 3zM512 960c-139 0-156.4-0.6-211-3-54.4-2.4-91.8-11.2-124.2-23.8-33.8-13.2-62.4-30.6-90.8-59.2-28.6-28.4-46-57-59.2-90.6-12.6-32.6-21.4-69.8-23.8-124.2-2.4-54.8-3-72.2-3-211.2s0.6-156.4 3-211c2.4-54.4 11.2-91.8 23.8-124.2 13.2-33.8 30.6-62.4 59.2-90.8 28.4-28.4 57-46 90.6-59 32.6-12.6 69.8-21.4 124.2-23.8 54.6-2.4 72-3 211-3s156.4 0.6 211 3c54.4 2.4 91.8 11.2 124.2 23.8 33.6 13 62.2 30.6 90.6 59s46 57 59 90.6c12.6 32.6 21.4 69.8 23.8 124.2 2.4 54.6 3 72 3 211s-0.6 156.4-3 211c-2.4 54.4-11.2 91.8-23.8 124.2-12.6 34-30 62.6-58.6 91-28.4 28.4-57 46-90.6 59-32.6 12.6-69.8 21.4-124.2 23.8-54.8 2.6-72.2 3.2-211.2 3.2v0zM512 711c-145.2 0-263-117.8-263-263s117.8-263 263-263 263 117.8 263 263c0 145.2-117.8 263-263 263zM512 277.4c-94.2 0-170.6 76.4-170.6 170.6s76.4 170.6 170.6 170.6c94.2 0 170.6-76.4 170.6-170.6s-76.4-170.6-170.6-170.6zM846.8 721.4c0-33.91-27.49-61.4-61.4-61.4s-61.4 27.49-61.4 61.4c0 33.91 27.49 61.4 61.4 61.4s61.4-27.49 61.4-61.4z" />
<glyph unicode="&#xe904;" glyph-name="pinterest" horiz-adv-x="731" d="M0 609.714c0 210.857 193.143 341.143 388.571 341.143 179.429 0 342.857-123.429 342.857-312.571 0-177.714-90.857-374.857-293.143-374.857-48 0-108.571 24-132 68.571-43.429-172-40-197.714-136-329.143l-8-2.857-5.143 5.714c-3.429 36-8.571 71.429-8.571 107.429 0 116.571 53.714 285.143 80 398.286-14.286 29.143-18.286 64.571-18.286 96.571 0 57.714 40 130.857 105.143 130.857 48 0 73.714-36.571 73.714-81.714 0-74.286-50.286-144-50.286-216 0-49.143 40.571-83.429 88-83.429 131.429 0 172 189.714 172 290.857 0 135.429-96 209.143-225.714 209.143-150.857 0-267.429-108.571-267.429-261.714 0-73.714 45.143-111.429 45.143-129.143 0-14.857-10.857-67.429-29.714-67.429-2.857 0-6.857 1.143-9.714 1.714-81.714 24.571-111.429 133.714-111.429 208.571z" />
<glyph unicode="&#xe905;" glyph-name="youtube" d="M1013.8 652.8c0 0-10 70.6-40.8 101.6-39 40.8-82.6 41-102.6 43.4-143.2 10.4-358.2 10.4-358.2 10.4h-0.4c0 0-215 0-358.2-10.4-20-2.4-63.6-2.6-102.6-43.4-30.8-31-40.6-101.6-40.6-101.6s-10.2-82.8-10.2-165.8v-77.6c0-82.8 10.2-165.8 10.2-165.8s10-70.6 40.6-101.6c39-40.8 90.2-39.4 113-43.8 82-7.8 348.2-10.2 348.2-10.2s215.2 0.4 358.4 10.6c20 2.4 63.6 2.6 102.6 43.4 30.8 31 40.8 101.6 40.8 101.6s10.2 82.8 10.2 165.8v77.6c-0.2 82.8-10.4 165.8-10.4 165.8zM406.2 315.2v287.8l276.6-144.4-276.6-143.4z" />
<glyph unicode="&#xe906;" glyph-name="14" d="M0 847.568h96.851v-842.378h41.514v883.795l-135.971 1.827-2.394-43.243zM913.297 267.568l-3.141 621.706-38.372-0.291-469.739-619.409v-41.389h469.712v-222.402h38.4v222.402l113.844-2.048v41.43h-110.703zM871.784 267.568h-415.149l415.149 538.555v-538.555z" />
<glyph unicode="&#xe907;" glyph-name="box" d="M1007.616 685.328c0 0.416-0.272 0.816-0.448 1.248-0.224 0.816-0.416 1.44-0.64 2.256-0.208 0.432-0.448 1.040-0.656 1.472-0.416 0.624-0.64 1.248-1.024 1.872-0.192 0.416-0.64 0.816-0.848 1.248-0.192 0.256-0.192 0.416-0.448 0.656l-205.344 258.032c-4.016 4.976-9.888 7.888-16.432 7.888h-539.568c-6.288 0-12.4-2.912-16.416-7.888l-205.376-258.032c-0.192-0.24-0.192-0.4-0.432-0.656-0.192-0.432-0.624-0.832-0.816-1.248-0.432-0.624-0.832-1.248-1.056-1.872-0.208-0.432-0.432-0.816-0.624-1.472-0.208-0.816-0.432-1.44-0.64-2.256-0.24-0.432-0.24-0.832-0.432-1.248-0.224-1.248-0.416-2.496-0.416-3.728v-724.992c0-11.488 9.44-20.608 20.8-20.608h950.384c11.568 0 20.816 9.12 20.816 20.592v725.008c0 1.232-0.272 2.48-0.384 3.728zM532.912 918.992h238.864l172.56-216.8h-411.424v216.8zM252.496 918.992h238.816v-216.8h-411.616l172.8 216.8zM966.368-22.8h-908.72v683.792h908.784v-683.792h-0.064zM201.2 427.536h621.808c11.584 0 20.816 9.088 20.816 20.56s-9.232 20.608-20.816 20.608h-621.808c-11.584 0-20.784-9.136-20.784-20.608s9.2-20.56 20.784-20.56zM704.88 327.632h-385.536c-11.584 0-20.832-9.184-20.832-20.64s9.248-20.592 20.832-20.592h385.52c11.568 0 20.816 9.136 20.816 20.592s-9.248 20.64-20.8 20.64zM704.88 186.576h-385.536c-11.584 0-20.832-9.152-20.832-20.608 0-11.488 9.248-20.656 20.832-20.656h385.52c11.568 0 20.816 9.168 20.816 20.656 0 11.2-9.248 20.608-20.8 20.608z" />
<glyph unicode="&#xe908;" glyph-name="lock" d="M512 960c-158.064 0-286.672-128.368-286.672-286.16v-184.768h-58.72c-38.928-0.016-70.608-31.632-70.608-70.496v-412.096c0-38.848 31.68-70.48 70.608-70.48h690.784c38.944 0 70.608 31.632 70.608 70.48v412.096c0 38.864-31.664 70.48-70.608 70.48h-58.736v184.784c0 157.792-128.576 286.16-286.656 286.16zM266.672 673.84c0 135.024 110.048 244.88 245.328 244.88 135.264 0 245.312-109.856 245.312-244.88v-184.768h-490.64v184.768zM857.392 447.776c16.128 0 29.264-13.088 29.264-29.2v-412.096c0-16.112-13.136-29.216-29.264-29.216h-690.784c-16.128 0-29.264 13.104-29.264 29.216v412.096c0 16.112 13.12 29.2 29.264 29.2h690.784zM512 312.976c-55.408 0-100.496-45.008-100.496-100.336s45.088-100.336 100.496-100.336c55.408 0 100.496 44.992 100.496 100.336 0 55.312-45.088 100.336-100.496 100.336zM512 153.376c-32.624 0-59.152 26.48-59.152 59.040s26.544 59.056 59.152 59.056c32.624 0 59.152-26.496 59.152-59.056s-26.528-59.040-59.152-59.040z" />
<glyph unicode="&#xe909;" glyph-name="call" d="M862.208-11.68l0.256 0.304c11.008 13.296 23.328 25.168 36.336 37.76l2.752 2.624c11.616 11.104 20.336 19.76 28.336 28.096v0.016c20.256 20.976 30.928 45.312 30.928 70.224 0 25.168-10.832 49.216-31.392 69.488l-120.88 121.104c-19.824 20.624-43.488 31.552-68.4 31.552-24.8 0-48.768-10.864-69.376-31.424l-73.872-73.52-5.296 2.928c-3.84 2.064-7.552 3.984-11.28 5.888-1.888 0.928-3.76 1.92-5.6 2.88-8.048 4-15.696 7.792-22.336 11.952-65.904 41.76-125.76 96.24-183.056 166.448-27.968 35.36-46.592 64.72-60.496 95.36l-2.448 5.44 4.416 4.048c16.144 14.752 31.344 30.144 46.016 45.024l4.672 4.752c3.056 3.024 6.096 6.112 9.088 9.152l0.384 0.384c3.024 3.072 6.048 6.112 9.072 9.12 42.656 42.624 42.656 97.664 0 140.32l-61.024 60.896c-6.496 6.528-13.248 13.296-19.68 20.128-12.784 13.168-26.624 27.232-40.928 40.4-19.952 19.712-43.456 30.080-68.096 30.080-24.688 0-48.576-10.352-69.024-29.984l-75.040-75.536c-26.752-26.752-42-59.392-45.344-97.040-5.152-62.256 13.328-120.752 27.664-159.36 35.392-95.392 88.4-183.664 166.864-277.824 95.632-114 210.656-203.92 341.84-267.28 50.112-23.76 117.12-51.584 190.432-56.288 4.416-0.176 9.072-0.432 13.328-0.432 48.256 0 88.752 17.28 120.4 51.312 0.32 0.448 0.576 0.8 0.784 1.008zM830.256 16.464c-24.208-25.792-52.416-37.808-88.992-37.808-3.328 0-7.072 0-10.656 0.256-66.72 4.288-128.368 30.128-174.512 52.192-125.68 60.736-235.824 146.864-327.344 255.984-75.504 90.832-126.224 175.248-159.76 265.696-20.8 55.616-28.56 99.088-25.12 140.992 2.368 27.712 13.056 50.752 32.752 70.352l75.008 74.896c12.576 11.792 26.128 17.984 39.264 17.984s26.24-6.144 37.936-17.744l0.688-0.688c14.080-13.12 27.872-27.216 39.664-39.424 3.344-3.424 6.72-6.864 10.16-10.336 3.664-3.712 7.184-7.312 10.752-10.96l59.968-59.84c26.48-26.432 26.48-53.264 0-79.712-2.064-1.984-4-3.984-5.952-5.936l-0.32-0.32c-4.128-4.192-8.416-8.512-12.8-12.752-19.616-20.064-36.544-36.88-55.296-53.696-0.064-0.048-0.096-0.112-0.208-0.176l-0.672-0.688c-15.024-15.040-13.424-28.848-9.392-41.568l0.544-1.664c15.008-36.272 36.48-71.232 69.52-113.152l0.272-0.32c60.352-74.256 123.6-131.664 193.328-175.76 8.784-5.552 18.112-10.192 26.336-14.272 8.064-4.080 15.68-7.824 22.256-11.904 0.384-0.208 0.976-0.544 1.504-0.88 0.336-0.224 0.48-0.352 0.72-0.416 6.304-3.152 12-4.624 18.064-4.624 14.864 0 24.448 9.584 27.584 12.752l75.28 75.088c8.576 8.624 22.368 18.848 39.008 18.848 17.984 0 31.392-11.664 37.744-18.72l121.344-121.072c25.648-25.36 25.776-53.84 0.368-80.208-7.216-7.776-14.448-14.848-22.176-22.32l-4.88-4.784c-13.904-13.072-28.544-27.472-41.984-43.296zM835.168 499.392c-11.6 67.904-43.696 129.728-92.976 178.896-49.168 49.104-111.168 81.216-179.152 92.752-1.136 0.192-2.368 0.304-3.584 0.304-10.416 0-19.376-7.488-21.2-17.792-0.992-5.744 0.288-11.504 3.648-16.224 3.216-4.544 8.032-7.552 13.536-8.464 59.136-9.888 113.136-37.888 156.272-80.896 42.784-42.752 70.88-96.688 81.040-155.952 1.712-10.32 10.544-17.76 21.12-17.76 0.992 0 2.032 0.112 3.36 0.304l0.72 0.096c11.296 1.824 19.152 12.944 17.216 24.736zM1020.080 492.016c3.328 4.64 4.592 10.24 3.584 15.824-19.28 113.008-72.736 215.856-154.544 297.584-81.744 81.648-184.8 134.992-297.936 154.256-1.216 0.208-2.528 0.32-3.728 0.32-4.288 0-8.496-1.344-12.048-3.92-4.64-3.312-7.776-8.256-8.8-13.904-1.92-11.744 5.888-22.608 17.712-24.688 103.936-17.616 198.896-66.752 274.656-142.16 75.552-75.376 124.768-170.24 142.416-274.336 1.744-10.272 10.592-17.712 21.136-17.712 1.152 0 2.24 0.128 3.664 0.336l0.352 0.064c5.408 0.784 10.208 3.76 13.536 8.336z" />
<glyph unicode="&#xe90a;" glyph-name="minus" d="M128 469.334h768q17.667 0 30.167-12.5t12.5-30.167-12.5-30.167-30.167-12.5h-768q-17.667 0-30.167 12.5t-12.5 30.167 12.5 30.167 30.167 12.5z" />
<glyph unicode="&#xe90b;" glyph-name="arrow-right-bold" d="M774.144 478.641l-458.752 429.292c-18.078 16.935-47.419 16.935-65.536 0-18.078-16.935-18.078-44.426 0-61.322l425.945-398.612-425.905-398.612c-18.078-16.935-18.078-44.347 0-61.322 18.117-16.935 47.419-16.935 65.536 0l458.752 429.253c17.999 16.935 17.999 44.386-0.039 61.322z" />
<glyph unicode="&#xe90c;" glyph-name="arrow-left-light" d="M317.501 448l457.646 462.152c6.656 6.738 6.656 17.613 0 24.33-6.124 6.164-15.626 6.39-22.282 1.208-6.697 5.181-16.179 4.956-22.282-1.208l-457.646-462.172c-6.164-6.205-6.369-15.892-1.106-22.63-0.225-0.164-0.471-0.287-0.696-0.471-6.676 5.181-16.159 4.977-22.262-1.208-6.656-6.738-6.656-17.633 0-24.33l457.626-462.152c6.103-6.185 15.585-6.39 22.262-1.229 6.697-5.181 16.2-4.956 22.303 1.229 6.615 6.717 6.615 17.572 0 24.33l-456.212 460.698c0.123 0.082 0.246 0.143 0.369 0.246 6.697-5.202 16.159-4.977 22.282 1.208z" />
<glyph unicode="&#xe90d;" glyph-name="arrow-right-light" d="M775.127 448.020c-6.124 6.164-15.606 6.39-22.282 1.208-0.225 0.164-0.451 0.307-0.676 0.451 5.243 6.738 5.059 16.425-1.106 22.63l-457.646 462.172c-6.103 6.164-15.606 6.369-22.282 1.188-6.656 5.181-16.159 4.977-22.282-1.188-6.656-6.717-6.656-17.592 0-24.33l457.626-462.111c6.124-6.205 15.606-6.41 22.282-1.229 0.123-0.082 0.266-0.164 0.389-0.246l-456.212-460.698c-6.636-6.738-6.636-17.592 0-24.33 6.124-6.185 15.626-6.39 22.282-1.208 6.676-5.202 16.179-4.977 22.303 1.208l457.605 462.131c6.676 6.717 6.676 17.613 0 24.351z" />
<glyph unicode="&#xe90e;" glyph-name="bag" d="M862.625 128.55l-50.214 565.21c-1.062 12.553-11.605 22.073-23.988 22.073h-103.272c-1.422 94.265-78.469 170.458-173.151 170.458-94.644 0-171.729-76.193-173.151-170.458h-103.272c-12.535 0-22.945-9.519-24.026-22.073l-50.214-565.21c0-0.74-0.152-1.441-0.152-2.143 0-64.379 58.956-116.698 131.565-116.698h438.481c72.609 0 131.584 52.338 131.584 116.698 0 0.702 0 1.403-0.19 2.143v0zM512 837.897c67.944 0 123.316-54.5 124.757-122.065h-249.534c1.441 67.565 56.832 122.065 124.776 122.065v0zM731.231 58.084h-438.481c-45.53 0-82.451 30.151-83.172 67.262l48.033 541.905h81.010v-73.481c0-13.445 10.752-24.197 24.197-24.197s24.197 10.752 24.197 24.197v73.481h249.704v-73.481c0-13.445 10.752-24.197 24.197-24.197s24.197 10.752 24.197 24.197v73.481h81.010l48.242-541.905c-0.683-37.129-37.774-67.262-83.134-67.262v0z" />
<glyph unicode="&#xe90f;" glyph-name="twitter" d="M1024 733.6c-37.6-16.8-78.2-28-120.6-33 43.4 26 76.6 67.2 92.4 116.2-40.6-24-85.6-41.6-133.4-51-38.4 40.8-93 66.2-153.4 66.2-116 0-210-94-210-210 0-16.4 1.8-32.4 5.4-47.8-174.6 8.8-329.4 92.4-433 219.6-18-31-28.4-67.2-28.4-105.6 0-72.8 37-137.2 93.4-174.8-34.4 1-66.8 10.6-95.2 26.2 0-0.8 0-1.8 0-2.6 0-101.8 72.4-186.8 168.6-206-17.6-4.8-36.2-7.4-55.4-7.4-13.6 0-26.6 1.4-39.6 3.8 26.8-83.4 104.4-144.2 196.2-146-72-56.4-162.4-90-261-90-17 0-33.6 1-50.2 3 93.2-59.8 203.6-94.4 322.2-94.4 386.4 0 597.8 320.2 597.8 597.8 0 9.2-0.2 18.2-0.6 27.2 41 29.4 76.6 66.4 104.8 108.6z" />
<glyph unicode="&#xe910;" glyph-name="add" d="M810 384.667h-256v-256h-84v256h-256v84h256v256h84v-256h256v-84z" />
<glyph unicode="&#xe911;" glyph-name="heart-empty" d="M937.719 811.482c-53.172 53.172-123.544 82.242-198.713 82.242-75.131 0-145.711-29.279-198.884-82.451l-27.762-27.743-28.236 28.179c-53.172 53.153-123.98 82.66-199.111 82.66-74.904 0-145.503-29.26-198.466-82.223-53.172-53.172-82.451-123.771-82.242-198.921 0-75.112 29.487-145.503 82.66-198.675l404.271-404.309c5.613-5.575 13.16-8.609 20.461-8.609 7.339 0 14.867 2.807 20.48 8.401l405.144 403.608c53.153 53.21 82.432 123.79 82.432 198.94 0.171 75.131-28.862 145.73-82.034 198.903v0zM896.379 454.77l-384.702-383.185-383.791 383.867c-42.193 42.193-65.46 98.152-65.46 157.772 0 59.639 23.021 115.598 65.214 157.582 41.984 41.984 97.963 65.214 157.374 65.214 59.62 0 115.807-23.249 157.999-65.441l48.659-48.64c11.416-11.416 29.715-11.416 41.15 0l48.185 48.223c42.212 42.193 98.38 65.441 157.772 65.441 59.43 0 115.39-23.249 157.601-65.214 42.174-42.231 65.214-98.171 65.214-157.791 0.228-59.657-23.040-115.617-65.214-157.829v0z" />
<glyph unicode="&#xe912;" glyph-name="arrow-down-bold" d="M1010.603 733.013c-18.389 18.219-48.128 18.219-66.517 0l-432.128-429.013-432.085 429.013c-18.432 18.219-48.128 18.219-66.56 0-18.304-18.219-18.304-47.787 0-66.005l465.408-461.995c18.389-18.219 48.085-18.219 66.517 0l465.365 461.995c18.347 18.261 18.347 47.787 0 66.005z" />
<glyph unicode="&#xe913;" glyph-name="facebook" d="M608 768h160v192h-160c-123.514 0-224-100.486-224-224v-96h-128v-192h128v-512h192v512h160l32 192h-192v96c0 17.346 14.654 32 32 32z" />
<glyph unicode="&#xe914;" glyph-name="arraw-left-light" d="M785.067-38.72l-482.944 486.72c-5.803 5.824-15.211 5.824-20.992 0-0.021-0.021-0.043-0.064-0.064-0.107l-0.043 0.043c0.021 0.021 0.064 0.043 0.085 0.064l482.944 486.741c5.781 5.845 5.781 15.339 0 21.184-5.824 5.824-15.211 5.824-20.992 0l-0.107-0.107c-0.021 0.021-0.043 0.064-0.064 0.107-5.824 5.824-15.211 5.824-20.992 0l-482.965-486.763c-5.781-5.824-5.781-15.317 0-21.163 5.803-5.845 15.211-5.845 21.013 0l0.107 0.107c0 0 0-0.021 0-0.021-0.021-0.043-0.064-0.064-0.107-0.085-5.803-5.845-5.803-15.317 0-21.163l482.944-486.72c5.781-5.867 15.168-5.867 20.992 0 0.021 0.021 0.043 0.064 0.064 0.107l0.107-0.107c5.781-5.867 15.168-5.867 20.992 0 5.803 5.824 5.803 15.275 0.021 21.163z" />
<glyph unicode="&#xe915;" glyph-name="location" d="M512 897.195c-195.499 0-354.532-158.35-354.532-353.052 0-24.263 2.475-48.412 7.31-71.936 0.114-1.223 0.313-2.446 0.597-3.669 40.533-181.589 146.176-342.585 297.131-453.205 14.393-10.809 31.659-16.526 49.806-16.526 14.421 0 28.644 3.812 41.159 10.923 0.853 0.455 1.678 0.996 2.446 1.564l10.98 7.993c146.944 109.682 250.226 267.804 290.844 445.127 0.256 1.195 0.455 2.361 0.512 3.584 5.518 24.718 8.306 50.347 8.306 76.174-0.028 194.674-159.061 353.024-354.56 353.024zM805.746 476.331c-0.284-1.195-0.455-2.361-0.597-3.584-38.343-163.755-134.144-309.675-269.938-411.051l-9.159-6.684c-10.069-5.148-22.5-4.238-31.886 2.759-139.947 102.514-237.966 251.193-276.281 419.015-0.085 1.081-0.256 2.105-0.512 3.157-4.551 20.935-6.855 42.61-6.855 64.228 0 165.547 135.225 300.231 301.483 300.231 166.229 0 301.483-134.656 301.483-300.231 0-23.125-2.588-45.909-7.737-67.84zM512 695.268c-83.655 0-151.723-67.812-151.723-151.097 0-83.314 68.068-151.068 151.723-151.068s151.723 67.726 151.723 151.068c0 83.314-68.068 151.097-151.723 151.097zM512 445.924c-54.386 0-98.674 44.060-98.674 98.247s44.288 98.276 98.674 98.276c54.443 0 98.674-44.060 98.674-98.276 0-54.187-44.231-98.247-98.674-98.247z" />
<glyph unicode="&#xe916;" glyph-name="google" d="M101.837 686.643c0-76.493 25.549-131.686 75.878-164.096 41.267-26.624 89.088-30.618 113.971-30.618 6.042 0 10.906 0.307 14.285 0.512 0 0-7.885-51.405 30.208-102.195h-1.741c-65.997 0-281.242-13.773-281.242-190.822 0-180.019 197.683-189.184 237.363-189.184 3.123 0 4.966 0.102 4.966 0.102 0.41 0 3.226-0.102 8.090-0.102 25.446 0 91.238 3.174 152.32 32.922 79.258 38.4 119.45 105.421 119.45 198.912 0 90.317-61.235 144.077-105.933 183.398-27.29 24.013-50.893 44.698-50.893 64.819 0 20.48 17.254 35.891 39.014 55.398 35.277 31.488 68.557 76.39 68.557 161.28 0 74.598-9.677 124.723-69.325 156.518 6.195 3.174 28.211 5.478 39.066 7.014 32.307 4.403 79.565 9.421 79.565 35.789v5.069h-235.469c-2.355-0.102-238.131-8.806-238.131-224.717zM481.946 225.178c4.506-71.987-57.088-125.082-149.606-131.789-93.952-6.912-171.264 35.379-175.77 107.315-2.202 34.611 13.005 68.403 42.752 95.386 30.157 27.29 71.578 44.186 116.634 47.514 5.325 0.307 10.598 0.614 15.872 0.614 86.989-0.051 145.869-51.149 150.118-119.040zM420.454 735.949c23.091-81.306-11.776-166.195-67.379-181.914-6.4-1.792-12.954-2.662-19.661-2.662-50.893 0-101.325 51.507-120.064 122.522-10.445 39.731-9.574 74.65 2.406 108.134 11.725 33.024 32.922 55.194 59.546 62.72 6.4 1.792 13.005 2.714 19.712 2.714 61.44 0 100.966-25.498 125.44-111.514zM819.2 563.2v153.6h-102.4v-153.6h-153.6v-102.4h153.6v-153.6h102.4v153.6h153.6v102.4h-153.6z" />
<glyph unicode="&#xe918;" d="M1024 448c0-282.77-229.23-512-512-512s-512 229.23-512 512c0 282.77 229.23 512 512 512s512-229.23 512-512z" />
<glyph unicode="&#xe919;" d="M716.8 488.96h-163.84v163.84c0 22.62-18.34 40.96-40.96 40.96s-40.96-18.34-40.96-40.96v-163.84h-163.84c-22.62 0-40.96-18.34-40.96-40.96s18.34-40.96 40.96-40.96h163.84v-163.84c0-22.62 18.34-40.96 40.96-40.96s40.96 18.34 40.96 40.96v163.84h163.84c22.62 0 40.96 18.34 40.96 40.96s-18.34 40.96-40.96 40.96z" />
<glyph unicode="&#xe91a;" d="M716.8 488.96h-163.84v163.84c0 22.62-18.34 40.96-40.96 40.96s-40.96-18.34-40.96-40.96v-163.84h-163.84c-22.62 0-40.96-18.34-40.96-40.96s18.34-40.96 40.96-40.96h163.84v-163.84c0-22.62 18.34-40.96 40.96-40.96s40.96 18.34 40.96 40.96v163.84h163.84c22.62 0 40.96 18.34 40.96 40.96s-18.34 40.96-40.96 40.96z" />
<glyph unicode="&#xe91b;" d="M1024 448c0-282.77-229.23-512-512-512s-512 229.23-512 512c0 282.77 229.23 512 512 512s512-229.23 512-512z" />
<glyph unicode="&#xe91c;" d="M716.8 488.96h-163.84v163.84c0 22.62-18.34 40.96-40.96 40.96s-40.96-18.34-40.96-40.96v-163.84h-163.84c-22.62 0-40.96-18.34-40.96-40.96s18.34-40.96 40.96-40.96h163.84v-163.84c0-22.62 18.34-40.96 40.96-40.96s40.96 18.34 40.96 40.96v163.84h163.84c22.62 0 40.96 18.34 40.96 40.96s-18.34 40.96-40.96 40.96z" />
<glyph unicode="&#xe91d;" d="M716.8 488.96h-163.84v163.84c0 22.62-18.34 40.96-40.96 40.96s-40.96-18.34-40.96-40.96v-163.84h-163.84c-22.62 0-40.96-18.34-40.96-40.96s18.34-40.96 40.96-40.96h163.84v-163.84c0-22.62 18.34-40.96 40.96-40.96s40.96 18.34 40.96 40.96v163.84h163.84c22.62 0 40.96 18.34 40.96 40.96s-18.34 40.96-40.96 40.96z" />
<glyph unicode="&#xe91e;" glyph-name="search" d="M1015.024-11.776l-248.854 248.854c66.756 76.713 107.193 176.869 107.193 286.306 0 240.901-195.954 436.616-436.638 436.616-240.901 0-436.616-195.933-436.616-436.616s195.933-436.616 436.616-436.616c109.437 0 209.571 40.394 286.284 107.171l248.854-248.854c5.926-5.904 13.878-9.085 21.591-9.085 7.734 0 15.665 2.963 21.569 9.085 11.83 11.809 11.83 31.33 0 43.139v0zM61.2 523.384c0 207.066 168.459 375.307 375.329 375.307 207.066 0 375.329-168.459 375.329-375.307s-168.263-375.547-375.329-375.547c-206.87 0-375.329 168.481-375.329 375.547v0z" />
<glyph unicode="&#xe920;" glyph-name="user" d="M511.98 389.018c149.668 0 271.032 121.364 271.032 270.971s-121.385 270.152-271.032 270.152c-149.627 0-270.991-121.364-270.991-270.152 0-148.808 121.364-270.971 270.991-270.971zM511.98 873.513c117.453 0 213.586-96.092 213.586-213.524 0-117.453-96.113-213.545-213.586-213.545-117.432 0-213.545 96.072-213.545 213.545 0 117.432 96.113 213.524 213.545 213.524zM678.257 341.606h-332.534c-187.044 0-340.009-152.146-340.009-340.009 0-19.988 15.79-35.758 35.758-35.758h941.036c19.988 0 35.758 15.79 35.758 35.758 0.020 187.044-152.105 340.009-340.009 340.009zM62.71 23.736c17.92 134.062 122.757 270.336 262.738 270.336h383.304c140.063 0 234.435-135.434 252.355-270.336h-898.396z" />
<glyph unicode="&#xe921;" glyph-name="star" d="M512 960l-158.24-337.12-353.76-54.016 256-262.336-60.416-370.528 316.416 174.88 316.448-174.88-60.544 370.528 256.096 262.336-353.824 54.016z" />
<glyph unicode="&#xe922;" glyph-name="heart" d="M939.653 815.009c-53.532 53.532-124.397 82.792-200.040 82.792-75.624 0-146.716-29.487-200.249-83.001l-27.97-27.951-28.388 28.369c-53.532 53.532-124.814 83.228-200.457 83.228-75.435 0-146.508-29.468-199.832-82.773-53.513-53.532-82.982-124.606-82.773-200.268 0-75.605 29.696-146.508 83.228-200.040l407.002-407.002c5.632-5.632 13.217-8.666 20.594-8.666s14.962 2.807 20.575 8.439l407.893 406.376c53.513 53.532 83.001 124.606 83.001 200.268 0.209 75.605-29.051 146.697-82.584 200.23zM898.048 455.908c0 0 42.458 42.477 0 0z" />
<glyph unicode="&#xe923;" glyph-name="fax" d="M344.384 953.472l-162.944-162.912c-4.384-4.384-6.944-10.56-6.912-16.736v-162.912h-93.088c-44.704 0-81.44-36.736-81.44-81.44v-512c0-44.736 36.736-81.472 81.44-81.472h861.088c44.768 0 81.472 36.736 81.472 81.472v512c0 44.704-36.704 81.44-81.472 81.44h-93.088v325.792c0 12.192-11.072 23.296-23.264 23.296h-465.472c-6.496 0-12.704-2.912-16.32-6.528zM370.176 913.472h432.704v-465.472h-581.824v316.352l149.12 149.12zM416.704 797.088c-12.192-0.576-22.752-12.16-22.144-24.384 0.576-12.192 12.128-22.752 24.352-22.176h290.912c12.32-0.16 23.584 10.976 23.584 23.264 0 12.32-11.296 23.456-23.584 23.296h-290.912c-0.736 0.032-1.472 0.032-2.208 0zM312 610.912c-12.192-0.576-22.752-12.16-22.176-24.352s12.16-22.752 24.384-22.176h395.616c12.32-0.16 23.584 10.976 23.584 23.264 0 12.32-11.296 23.456-23.584 23.296h-395.648c-0.736 0-1.472 0-2.176-0.032zM81.44 564.352h93.088v-139.648c0-12.192 11.104-23.264 23.296-23.264h628.384c12.192 0 23.264 11.072 23.264 23.264v139.648h93.088c19.744 0 34.912-15.168 34.912-34.88v-512c0-19.744-15.168-34.912-34.912-34.912h-861.12c-19.744 0-34.912 15.168-34.912 34.912v512c0 19.712 15.168 34.88 34.912 34.88zM349.088 320c-25.728 0-46.528-20.832-46.528-46.528 0-25.728 20.8-46.56 46.528-46.56s46.528 20.832 46.528 46.56c0 25.696-20.8 46.528-46.528 46.528zM512 320c-25.696 0-46.56-20.832-46.56-46.528 0-25.728 20.864-46.56 46.56-46.56s46.528 20.832 46.528 46.56c0 25.696-20.832 46.528-46.528 46.528zM674.912 320c-25.728 0-46.56-20.832-46.56-46.528 0-25.728 20.832-46.56 46.56-46.56 25.696 0 46.528 20.832 46.528 46.56 0 25.696-20.832 46.528-46.528 46.528zM349.088 157.088c-25.728 0-46.528-20.832-46.528-46.528 0-25.728 20.8-46.56 46.528-46.56s46.528 20.832 46.528 46.56c0 25.696-20.8 46.528-46.528 46.528zM512 157.088c-25.696 0-46.56-20.832-46.56-46.528 0-25.728 20.864-46.56 46.56-46.56s46.528 20.832 46.528 46.56c0 25.696-20.832 46.528-46.528 46.528zM674.912 157.088c-25.728 0-46.56-20.832-46.56-46.528 0-25.728 20.832-46.56 46.56-46.56 25.696 0 46.528 20.832 46.528 46.56 0 25.696-20.832 46.528-46.528 46.528z" />
<glyph unicode="&#xe924;" glyph-name="trash" d="M539.676 655.568h-55.351v-581.189h55.351v581.189zM705.73 627.892h-55.351v-498.162h55.351v498.162zM373.622 627.892h-55.324v-498.162h55.324v498.162zM892.873 768.789l-187.143-2.518v83.027c0 49.816-33.737 110.703-83.027 110.703h-221.405c-49.733 0.332-85.379-59.060-82.999-110.703 0-23.663 0-83.027 0-83.027l-187.143 2.518h-89.642v-57.87h83.027v-691.892c0-49.844 46.91-83.027 96.228-83.027h582.462c49.318 0 96.228 33.183 96.228 83.027v691.892h83.027v57.87h-89.614zM373.622 849.297c0 27.178 0.803 55.351 27.676 55.351h193.73c26.873 0 55.351-28.202 55.351-55.351v-83.027h-276.757v83.027zM844.108 19.027c0-27.178-0.803-27.676-27.676-27.676h-608.837c-26.596 1.716-26.624 9.936-28.202 27.98-3.432-20.452 0.498 691.587 0.498 691.587h664.216v-691.892z" />
<glyph unicode="&#xe925;" glyph-name="info" d="M498.091 952.619c-282.283 0-512-229.675-512-511.957 0-282.368 229.632-512.043 512-512.043 282.261 0 512 229.675 512 512.043 0 282.283-229.739 511.957-512 511.957v0zM498.091-25.365c-256.939 0-466.005 209.003-466.005 466.048 0 256.96 209.067 466.048 466.005 466.048 256.896 0 466.069-209.067 466.069-466.048 0-257.067-209.152-466.048-466.069-466.048v0zM494.763 607.68c-18.965 0-34.453-15.403-34.453-34.475v-389.141c0-19.072 15.488-34.539 34.453-34.539 19.072 0 34.453 15.488 34.453 34.539v389.141c0.021 19.072-15.381 34.475-34.453 34.475v0zM538.816 703.168c0-23.104-18.795-41.792-41.899-41.792-23.083 0-41.877 18.688-41.877 41.792 0 23.189 18.795 41.877 41.877 41.877 23.104 0 41.899-18.688 41.899-41.877v0z" />
<glyph unicode="&#xe926;" d="M498.091 952.619c-282.283 0-512-229.675-512-511.957 0-282.368 229.632-512.043 512-512.043 282.261 0 512 229.675 512 512.043 0 282.283-229.739 511.957-512 511.957v0z" />
<glyph unicode="&#xe927;" d="M494.763 607.68c-18.965 0-34.453-15.403-34.453-34.475v-389.141c0-19.072 15.488-34.539 34.453-34.539 19.072 0 34.453 15.488 34.453 34.539v389.141c0.043 19.072-15.381 34.475-34.453 34.475v0z" />
<glyph unicode="&#xe928;" d="M538.816 703.168c0-23.104-18.795-41.792-41.899-41.792-23.083 0-41.877 18.688-41.877 41.792 0 23.189 18.795 41.877 41.877 41.877 23.104 0 41.899-18.688 41.899-41.877v0z" />
<glyph unicode="&#xe929;" glyph-name="mail" d="M17.852 207.872l337.545 250.641-337.545 256.137zM514.355 414.106h0.205c7.475 0 14.882 2.116 20.787 6.11l1.638 1.024c0.341 0.239 0.683 0.444 1.126 0.717l18.773 15.633 450.321 349.559c-0.819 1.297-2.492 2.15-4.164 2.15h-979.934c-1.161 0-2.287-0.41-3.277-1.195l471.211-366.285c5.973-4.881 14.404-7.714 23.313-7.714zM564.019 368.196c-13.517-10.991-31.095-17.169-49.596-17.169s-36.045 6.076-49.425 17.067l-69.666 56.081-377.481-290.987v-0.956c0-2.799 2.389-5.222 5.325-5.222h979.934c2.731 0 5.154 2.423 5.154 5.222v0.853l-369.493 296.858-74.752-61.747zM671.164 456.602l337.135-248.934v505.173z" />
<glyph unicode="&#xe92a;" glyph-name="users" d="M628.992 786.864c93.568 0 170.096-76.512 170.096-170.048s-76.528-170.048-170.096-170.048c-22.72 0-44.432 4.592-64.32 12.8-12.56-11.792-26.496-22.080-41.568-30.608 31.28-17.744 67.408-27.936 105.872-27.936 119.216 0 215.872 96.656 215.872 215.792 0.032 119.168-96.624 215.184-215.856 215.184-38.464 0-74.592-10.16-105.872-27.792 14.976-8.448 28.848-18.592 41.312-30.224 19.936 8.272 41.728 12.88 64.56 12.88zM750.4 363.264h-212.032c50.336 0 97.472-13.872 137.808-37.824h98.528c111.536 0 186.688-107.888 200.976-215.312h-167.152c0.368-5.84 0.624-11.696 0.624-17.648 0-15.904-12.56-28.464-28.496-28.464h212.096c15.904 0 28.464 12.56 28.464 28.464 0 148.96-121.152 270.784-270.816 270.784zM416.96 401.024c38.608 0 74.8 10.176 106.176 27.936 15.056 8.528 28.992 18.816 41.568 30.608 41.904 39.376 68.096 95.248 68.096 157.248 0 62.144-26.32 117.952-68.336 157.168-12.464 11.632-26.336 21.76-41.312 30.224-31.408 17.68-67.6 27.792-106.192 27.792-119.168 0-215.824-96.672-215.824-215.184 0-118.496 96.656-215.792 215.824-215.792zM416.96 786.864c22.928 0 44.8-4.656 64.8-12.96 14.944-6.208 28.768-14.512 41.248-24.512 38.944-31.216 64.032-79.072 64.032-132.576 0-53.488-25.088-101.36-64.032-132.576-12.528-10.048-26.48-18.384-41.52-24.624-19.92-8.224-41.712-12.848-64.528-12.848-93.52 0-170.064 76.512-170.064 170.048s76.544 170.048 170.064 170.048zM809.152 92.48c0 5.936-0.256 11.792-0.624 17.648-5.936 91.456-57.504 170.88-132.336 215.312-40.336 23.952-87.472 37.824-137.808 37.824h-264.848c-148.96 0-270.768-121.152-270.768-270.784 0-15.904 12.576-28.464 28.48-28.464h749.392c15.952-0.016 28.512 12.56 28.512 28.464zM260.192 110.112h-212.048c14.272 106.784 97.76 215.312 209.264 215.312h305.264c111.536 0 186.688-107.888 200.976-215.312h-503.456z" />
<glyph unicode="&#xe92c;" glyph-name="clock" d="M499.089-73.439c-282.201 0-511.933 229.71-511.933 512.089 0 282.201 229.71 511.911 511.933 511.911 282.357 0 512.067-229.71 512.067-511.911 0.022-282.357-229.71-512.089-512.067-512.089v0zM499.089 891.949c-250.034 0-453.32-203.264-453.32-453.298 0-250.168 203.286-453.498 453.32-453.498 250.168 0 453.498 203.331 453.498 453.498 0 250.034-203.331 453.298-453.498 453.298v0zM656.228 252.394c-7.569 0-14.982 2.738-20.792 8.526l-156.939 156.961c-5.476 5.476-8.526 12.889-8.526 20.792v332.088c0 16.117 13.023 29.295 29.295 29.295 16.095 0 29.139-13.045 29.139-29.295v-320.022l148.435-148.413c11.42-11.442 11.42-29.963 0-41.383-5.677-5.81-13.223-8.548-20.614-8.548v0z" />
<glyph unicode="&#xe92d;" glyph-name="triman" d="M456.619 942.37c-150.050-6.98-249.327-69.018-329.557-152.303-78.285-81.289-133.461-199.936-126.481-353.604 3.277-71.97 25.907-134.929 52.548-187.938 27.273-54.238 65.331-97.86 105.984-135.407 83.166-76.732 197.598-128.358 358.946-119.33 0.358-16.009 2.338-30.362 2.662-46.336 15.292 11.093 29.286 26.607 43.657 40.96 14.49 14.473 31.044 27.238 43.657 42.769-28.058 20.326-57.771 44.493-84.617 65.041-3.413 2.56-8.158 6.793-12.459 6.229 0.358-16.009 3.277-34.065 2.662-48.094-32.085-2.202-67.857-2.628-96.188 3.567-14.182 111.872-26.931 220.006-40.090 331.332-5.325 45.073-18.074 108.51 10.684 132.693 22.75 19.149 51.251 1.946 73.933-7.117 29.559-11.827 53.385-21.504 81.937-32.956 14.729-5.905 32.222-15.872 43.639-14.251 7.885 1.109 16.265 8.789 15.155 20.48-1.058 11.059-16.401 18.057-25.822 24.047-53.129 33.826-100.881 64.256-154.999 95.3-20.275 11.657-44.629 28.245-67.686 32.956-56.866 11.622-99.277-31.949-115.797-64.137-17.050-33.195-21.129-80.794-29.389-122.010-17.135-85.35-36.079-169.916-51.661-251.187-59.392 71.834-108.681 175.036-93.525 309.965 13.21 117.606 68.454 205.551 140.732 268.1 71.1 61.508 174.763 111.104 307.285 99.755 123.767-10.598 205.5-66.219 273.442-136.26 13.739 15.070 29.013 28.57 42.752 43.639-82.603 84.497-198.741 162.133-371.405 154.095zM304.333 741.069c-4.454-43.418 26.522-82.057 73.028-81.937 37.359 0.085 73.045 28.86 73.045 73.028 0 43.383-36.608 76.817-80.162 72.158-34.816-3.721-62.379-28.655-65.911-63.249zM854.75 753.545c-39.646-38.81-81.425-82.33-120.218-121.139-1.826-1.826-6.4-3.465-5.342-7.117 15.479-0.546 32.017-0.034 45.414-2.679 4.864-54.374-10.359-104.277-35.618-140.732-27.102-39.151-70.98-76.561-136.277-71.253 72.841-34.492 166.195-10.172 215.552 24.030 53.931 37.41 91.119 95.010 96.188 178.159 15.002-1.331 30.549-2.133 46.319-2.679-34.56 48.572-70.519 95.778-106.018 143.411zM871.697 379.46c-35.738-26.505-88.081-49.766-149.641-44.527-59.324 5.035-101.649 32.068-122.027 74.803 13.466-75.639 58.266-127.573 118.46-159.437 30.259-16.009 70.827-27.597 113.101-25.839 42.172 1.792 75.998 16.606 106.001 32.973 6.997-14.66 15.172-28.16 23.142-41.865 20.77 56.132 43.452 110.37 63.249 167.458-58.743 12.493-117.265 25.242-175.445 38.298 6.502-15.206 16.060-27.307 23.159-41.865zM530.551 207.565c13.534-78.797 60.689-129.741 121.156-161.229-8.192-13.773-15.838-28.092-23.159-42.735 58.436 11.895 116.958 23.774 175.462 35.635-21.299 56.166-40.431 114.534-63.249 169.199-6.451-14.302-13.534-28.041-21.35-40.96-33.604 11.708-65.058 34.202-89.975 62.362-24.166 27.307-45.244 62.805-48.077 105.097-2.372 35.26 7.27 59.307 18.705 78.37-49.442-44.015-84.702-117.385-69.513-205.739zM828.058 788.275c-13.739-15.070-29.013-28.57-42.752-43.639-67.942 70.042-149.692 125.679-273.442 136.277-132.523 11.349-236.186-38.246-307.285-99.755-72.277-62.532-127.522-150.494-140.732-268.1-15.155-134.929 34.133-238.131 93.525-309.965 15.582 81.271 34.526 165.837 51.661 251.187 8.26 41.216 12.339 88.832 29.389 122.010 16.521 32.188 58.948 75.759 115.797 64.137 23.057-4.71 47.394-21.316 67.686-32.956 54.118-31.044 101.854-61.491 154.999-95.3 9.421-6.007 24.764-12.988 25.822-24.030 1.109-11.708-7.27-19.388-15.155-20.497-11.418-1.604-28.894 8.346-43.639 14.251-28.553 11.452-52.378 21.111-81.937 32.956-22.665 9.079-51.166 26.266-73.933 7.117-28.757-24.183-16.009-87.637-10.684-132.693 13.158-111.326 25.907-219.46 40.090-331.332 28.331-6.195 64.102-5.769 96.188-3.567 0.614 14.029-2.304 32.102-2.662 48.094 4.318 0.563 9.045-3.669 12.459-6.229 26.846-20.531 56.559-44.698 84.617-65.041-12.595-15.531-29.184-28.297-43.657-42.769-14.37-14.37-28.348-29.867-43.657-40.96-0.341 15.974-2.321 30.327-2.662 46.336-161.348-9.028-275.78 42.598-358.946 119.33-40.653 37.53-78.711 81.169-105.984 135.407-26.641 52.992-49.289 115.968-52.548 187.938-6.997 153.651 48.162 272.299 126.464 353.587 80.23 83.285 179.507 145.323 329.557 152.303 172.646 8.038 288.785-69.598 371.422-154.095zM304.333 264.55c-3.755 13.005-9.54 58.999-25.839 57.907-12.288-0.836-19.371-30.071-24.047-42.769-15.258-41.37-32.358-93.935-45.431-128.273 41.284-36.471 91.443-64.102 151.415-81.971-17.681 64.307-37.547 130.679-56.098 195.106zM370.227 804.318c43.571 4.659 80.179-28.774 80.179-72.158 0-44.169-35.669-72.96-73.045-73.028-46.507-0.102-77.483 38.519-73.028 81.937 3.533 34.594 31.095 59.529 65.894 63.249zM960.751 610.133c-15.77 0.546-31.317 1.348-46.319 2.679-5.069-83.149-42.257-140.749-96.188-178.159-49.357-34.202-142.711-58.539-215.552-24.030 65.297-5.308 109.175 32.102 136.277 71.253 25.242 36.454 40.482 86.357 35.618 140.732-13.397 2.611-29.935 2.133-45.414 2.679-1.058 3.652 3.516 5.291 5.342 7.117 38.793 38.81 80.572 82.33 120.218 121.139 35.516-47.633 71.475-94.839 106.018-143.411zM848.555 421.325c58.18-13.073 116.702-25.805 175.445-38.298-19.797-57.105-42.479-111.326-63.249-167.458-7.987 13.705-16.128 27.204-23.142 41.865-30.003-16.367-63.829-31.164-106.001-32.973-42.274-1.775-82.842 9.83-113.101 25.839-60.194 31.863-104.994 83.797-118.46 159.437 20.378-42.735 62.72-69.769 122.027-74.803 61.542-5.239 113.903 18.039 149.641 44.527-7.134 14.558-16.674 26.658-23.159 41.865zM600.030 413.286c-11.435-19.063-21.060-43.093-18.705-78.37 2.833-42.308 23.91-77.807 48.077-105.097 24.934-28.16 56.388-50.671 89.958-62.362 7.834 12.937 14.916 26.658 21.367 40.96 22.818-54.665 41.95-113.033 63.249-169.199-58.522-11.861-117.026-23.74-175.462-35.635 7.339 14.626 14.967 28.962 23.159 42.735-60.467 31.505-107.605 82.432-121.156 161.229-15.155 88.371 20.105 161.741 69.513 205.739zM360.431 69.461c-59.972 17.869-110.114 45.5-151.415 81.971 13.073 34.338 30.174 86.903 45.431 128.273 4.676 12.732 11.759 41.933 24.047 42.769 16.299 1.092 22.084-44.902 25.822-57.907 18.551-64.444 38.434-130.816 56.115-195.106z" />
<glyph unicode="&#xe92e;" glyph-name="plus-light" d="M1024 458.24h-501.78v501.76h-20.47v-501.76h-501.75v-20.48h501.75v-501.76h20.47v501.76h501.78z" />
</font>
</defs>
</svg>
